<svg width="31" height="8" viewBox="0 0 31 8" fill="none" xmlns="http://www.w3.org/2000/svg">
<path d="M25.3566 2.337C25.5015 2.45649 25.585 2.63189 25.5859 2.81713C25.5874 3.15855 25.3107 3.43517 24.9696 3.43376C23.7821 3.42883 22.2089 2.00467 21.0688 0.614062L0.462955 0.528347L0.468732 1.91949C0.469632 2.13602 0.472122 2.7356 0.472122 2.7356L17.1955 2.80505C17.5859 3.32254 18.1258 3.98679 18.7739 4.65255C20.8345 6.7653 22.9245 7.8439 24.988 7.85247C27.7658 7.864 30.0162 5.61357 30.0045 2.83592C30.0012 2.07626 29.8275 1.32907 29.4981 0.648914L24.5445 0.628345C24.5471 1.29097 24.8434 1.91409 25.3566 2.337Z" fill="#3BA7F5"/>
</svg>
