<svg width="32" height="18" viewBox="0 0 32 18" fill="none" xmlns="http://www.w3.org/2000/svg">
<path d="M27.5632 17.25H4.43703C4.08371 17.25 3.75363 17.0705 3.55469 16.7703C0.503441 12.1689 0.269368 3.31757 0.25166 2.00363C0.250553 1.95213 0.25 1.90006 0.25 1.84827C0.25 1.24252 0.727 0.751138 1.31606 0.75H1.31827C1.90622 0.75 2.38405 1.2391 2.38626 1.84401C2.38626 1.8514 2.38654 1.91628 2.38903 2.03122C2.4831 5.15618 4.98459 7.66827 8.0458 7.66827C11.1665 7.66827 13.7053 5.05745 13.7053 1.84827C13.7053 1.24166 14.1837 0.75 14.7733 0.75H17.2267C17.8166 0.75 18.2947 1.24166 18.2947 1.84827C18.2947 5.05745 20.8338 7.66827 23.9545 7.66827C27.0185 7.66827 29.5216 5.15163 29.6115 2.02269C29.6135 1.91286 29.614 1.8514 29.614 1.84429C29.6162 1.2391 30.0938 0.75 30.682 0.75H30.6839C31.273 0.751138 31.75 1.24252 31.75 1.84827C31.75 1.90034 31.7494 1.95213 31.7486 2.00391C31.7306 3.31757 31.4966 12.1692 28.4456 16.7706C28.2466 17.0705 27.9163 17.25 27.5632 17.25Z" fill="#F79C6E"/>
</svg>
